<mxfile host="app.diagrams.net" modified="2022-04-05T08:38:23.790Z" agent="5.0 (Windows NT 10.0; Win64; x64) AppleWebKit/537.36 (KHTML, like Gecko) Chrome/100.0.4896.75 Safari/537.36" etag="w7Al10Vso8mAMILuOnLC" version="17.4.0" type="github">
  <diagram id="mimrpsYutar8qjX5_tbt" name="Page-1">
    <mxGraphModel dx="1829" dy="682" grid="1" gridSize="10" guides="1" tooltips="1" connect="1" arrows="1" fold="1" page="1" pageScale="1" pageWidth="827" pageHeight="1169" math="0" shadow="0">
      <root>
        <mxCell id="0" />
        <mxCell id="1" parent="0" />
        <mxCell id="Bov5_DBXv647sMZZD7ae-15" style="edgeStyle=orthogonalEdgeStyle;rounded=0;orthogonalLoop=1;jettySize=auto;html=1;exitX=0.5;exitY=1;exitDx=0;exitDy=0;entryX=0.5;entryY=0;entryDx=0;entryDy=0;" edge="1" parent="1" source="Bov5_DBXv647sMZZD7ae-1" target="Bov5_DBXv647sMZZD7ae-3">
          <mxGeometry relative="1" as="geometry" />
        </mxCell>
        <mxCell id="Bov5_DBXv647sMZZD7ae-16" style="edgeStyle=orthogonalEdgeStyle;rounded=0;orthogonalLoop=1;jettySize=auto;html=1;exitX=0.5;exitY=1;exitDx=0;exitDy=0;" edge="1" parent="1" source="Bov5_DBXv647sMZZD7ae-1" target="Bov5_DBXv647sMZZD7ae-4">
          <mxGeometry relative="1" as="geometry" />
        </mxCell>
        <mxCell id="Bov5_DBXv647sMZZD7ae-17" style="edgeStyle=orthogonalEdgeStyle;rounded=0;orthogonalLoop=1;jettySize=auto;html=1;exitX=0.5;exitY=1;exitDx=0;exitDy=0;" edge="1" parent="1" source="Bov5_DBXv647sMZZD7ae-1" target="Bov5_DBXv647sMZZD7ae-9">
          <mxGeometry relative="1" as="geometry" />
        </mxCell>
        <mxCell id="Bov5_DBXv647sMZZD7ae-1" value="个人中心" style="rounded=0;whiteSpace=wrap;html=1;" vertex="1" parent="1">
          <mxGeometry x="210" y="40" width="190" height="60" as="geometry" />
        </mxCell>
        <mxCell id="Bov5_DBXv647sMZZD7ae-18" style="edgeStyle=orthogonalEdgeStyle;rounded=0;orthogonalLoop=1;jettySize=auto;html=1;exitX=0.5;exitY=1;exitDx=0;exitDy=0;entryX=0.5;entryY=0;entryDx=0;entryDy=0;" edge="1" parent="1" source="Bov5_DBXv647sMZZD7ae-3" target="Bov5_DBXv647sMZZD7ae-7">
          <mxGeometry relative="1" as="geometry" />
        </mxCell>
        <mxCell id="Bov5_DBXv647sMZZD7ae-20" style="edgeStyle=orthogonalEdgeStyle;rounded=0;orthogonalLoop=1;jettySize=auto;html=1;exitX=0.5;exitY=1;exitDx=0;exitDy=0;" edge="1" parent="1" source="Bov5_DBXv647sMZZD7ae-3" target="Bov5_DBXv647sMZZD7ae-6">
          <mxGeometry relative="1" as="geometry" />
        </mxCell>
        <mxCell id="Bov5_DBXv647sMZZD7ae-21" style="edgeStyle=orthogonalEdgeStyle;rounded=0;orthogonalLoop=1;jettySize=auto;html=1;exitX=0.5;exitY=1;exitDx=0;exitDy=0;entryX=0.5;entryY=0;entryDx=0;entryDy=0;" edge="1" parent="1" source="Bov5_DBXv647sMZZD7ae-3" target="Bov5_DBXv647sMZZD7ae-11">
          <mxGeometry relative="1" as="geometry" />
        </mxCell>
        <mxCell id="Bov5_DBXv647sMZZD7ae-22" style="edgeStyle=orthogonalEdgeStyle;rounded=0;orthogonalLoop=1;jettySize=auto;html=1;exitX=0.5;exitY=1;exitDx=0;exitDy=0;entryX=0.5;entryY=-0.108;entryDx=0;entryDy=0;entryPerimeter=0;" edge="1" parent="1" source="Bov5_DBXv647sMZZD7ae-3" target="Bov5_DBXv647sMZZD7ae-12">
          <mxGeometry relative="1" as="geometry" />
        </mxCell>
        <mxCell id="Bov5_DBXv647sMZZD7ae-3" value="订单管理" style="rounded=0;whiteSpace=wrap;html=1;" vertex="1" parent="1">
          <mxGeometry x="-30" y="180" width="120" height="60" as="geometry" />
        </mxCell>
        <mxCell id="Bov5_DBXv647sMZZD7ae-23" style="edgeStyle=orthogonalEdgeStyle;rounded=0;orthogonalLoop=1;jettySize=auto;html=1;exitX=0.5;exitY=1;exitDx=0;exitDy=0;entryX=0.5;entryY=0;entryDx=0;entryDy=0;" edge="1" parent="1" source="Bov5_DBXv647sMZZD7ae-4" target="Bov5_DBXv647sMZZD7ae-5">
          <mxGeometry relative="1" as="geometry" />
        </mxCell>
        <mxCell id="Bov5_DBXv647sMZZD7ae-24" style="edgeStyle=orthogonalEdgeStyle;rounded=0;orthogonalLoop=1;jettySize=auto;html=1;exitX=0.5;exitY=1;exitDx=0;exitDy=0;entryX=0.5;entryY=0;entryDx=0;entryDy=0;" edge="1" parent="1" source="Bov5_DBXv647sMZZD7ae-4" target="Bov5_DBXv647sMZZD7ae-8">
          <mxGeometry relative="1" as="geometry" />
        </mxCell>
        <mxCell id="Bov5_DBXv647sMZZD7ae-4" value="通知管理" style="rounded=0;whiteSpace=wrap;html=1;" vertex="1" parent="1">
          <mxGeometry x="270" y="180" width="120" height="60" as="geometry" />
        </mxCell>
        <mxCell id="Bov5_DBXv647sMZZD7ae-5" value="评论回复通知" style="rounded=0;whiteSpace=wrap;html=1;" vertex="1" parent="1">
          <mxGeometry x="260" y="300" width="60" height="60" as="geometry" />
        </mxCell>
        <mxCell id="Bov5_DBXv647sMZZD7ae-6" value="确认订单商品收货" style="rounded=0;whiteSpace=wrap;html=1;" vertex="1" parent="1">
          <mxGeometry x="-50" y="300" width="60" height="60" as="geometry" />
        </mxCell>
        <mxCell id="Bov5_DBXv647sMZZD7ae-7" value="查看订单" style="rounded=0;whiteSpace=wrap;html=1;" vertex="1" parent="1">
          <mxGeometry x="-130" y="300" width="60" height="60" as="geometry" />
        </mxCell>
        <mxCell id="Bov5_DBXv647sMZZD7ae-8" value="评论点赞通知" style="rounded=0;whiteSpace=wrap;html=1;" vertex="1" parent="1">
          <mxGeometry x="350" y="300" width="60" height="60" as="geometry" />
        </mxCell>
        <mxCell id="Bov5_DBXv647sMZZD7ae-25" style="edgeStyle=orthogonalEdgeStyle;rounded=0;orthogonalLoop=1;jettySize=auto;html=1;exitX=0.5;exitY=1;exitDx=0;exitDy=0;" edge="1" parent="1" source="Bov5_DBXv647sMZZD7ae-9" target="Bov5_DBXv647sMZZD7ae-13">
          <mxGeometry relative="1" as="geometry" />
        </mxCell>
        <mxCell id="Bov5_DBXv647sMZZD7ae-26" style="edgeStyle=orthogonalEdgeStyle;rounded=0;orthogonalLoop=1;jettySize=auto;html=1;exitX=0.5;exitY=1;exitDx=0;exitDy=0;entryX=0.5;entryY=0;entryDx=0;entryDy=0;" edge="1" parent="1" source="Bov5_DBXv647sMZZD7ae-9" target="Bov5_DBXv647sMZZD7ae-14">
          <mxGeometry relative="1" as="geometry" />
        </mxCell>
        <mxCell id="Bov5_DBXv647sMZZD7ae-9" value="收藏管理" style="rounded=0;whiteSpace=wrap;html=1;" vertex="1" parent="1">
          <mxGeometry x="540" y="180" width="120" height="60" as="geometry" />
        </mxCell>
        <mxCell id="Bov5_DBXv647sMZZD7ae-11" value="查看物流信息" style="rounded=0;whiteSpace=wrap;html=1;" vertex="1" parent="1">
          <mxGeometry x="30" y="300" width="60" height="60" as="geometry" />
        </mxCell>
        <mxCell id="Bov5_DBXv647sMZZD7ae-12" value="评论已完成交易商品" style="rounded=0;whiteSpace=wrap;html=1;" vertex="1" parent="1">
          <mxGeometry x="110" y="300" width="60" height="60" as="geometry" />
        </mxCell>
        <mxCell id="Bov5_DBXv647sMZZD7ae-13" value="店铺收藏" style="rounded=0;whiteSpace=wrap;html=1;" vertex="1" parent="1">
          <mxGeometry x="520" y="300" width="60" height="60" as="geometry" />
        </mxCell>
        <mxCell id="Bov5_DBXv647sMZZD7ae-14" value="商品收藏" style="rounded=0;whiteSpace=wrap;html=1;" vertex="1" parent="1">
          <mxGeometry x="630" y="300" width="60" height="60" as="geometry" />
        </mxCell>
      </root>
    </mxGraphModel>
  </diagram>
</mxfile>
